{"asset":{"generator":"glTF-Transform v4.5.0","version":"2.0"},"accessors":[{"type":"SCALAR","componentType":5123,"count":2904,"bufferView":0,"byteOffset":0},{"type":"SCALAR","componentType":5123,"count":1086,"bufferView":0,"byteOffset":5808},{"type":"SCALAR","componentType":5123,"count":2370,"bufferView":0,"byteOffset":7980},{"type":"SCALAR","componentType":5123,"count":702,"bufferView":0,"byteOffset":12720},{"type":"SCALAR","componentType":5123,"count":1338,"bufferView":0,"byteOffset":14124},{"type":"VEC3","componentType":5126,"count":569,"max":[-0.8659180402755737,0.03695181757211685,0.03342488408088684],"min":[-0.9415408968925476,-0.0008114632219076157,-0.029384873807430267],"bufferView":1,"byteOffset":0},{"type":"VEC3","componentType":5126,"count":569,"bufferView":1,"byteOffset":12},{"type":"VEC2","componentType":5126,"count":569,"bufferView":1,"byteOffset":24},{"type":"VEC3","componentType":5126,"count":254,"max":[-0.5967025756835938,0.08166828751564026,0.046116314828395844],"min":[-0.746638298034668,-0.002297554165124893,-0.03341260179877281],"bufferView":2,"byteOffset":0},{"type":"VEC3","componentType":5126,"count":254,"bufferView":2,"byteOffset":12},{"type":"VEC2","componentType":5126,"count":254,"bufferView":2,"byteOffset":24},{"type":"VEC3","componentType":5126,"count":480,"max":[-0.36775147914886475,0.054651591926813126,0.03994988650083542],"min":[-0.47112810611724854,-0.0012082713656127453,-0.05666706711053848],"bufferView":3,"byteOffset":0},{"type":"VEC3","componentType":5126,"count":480,"bufferView":3,"byteOffset":12},{"type":"VEC2","componentType":5126,"count":480,"bufferView":3,"byteOffset":24},{"type":"VEC3","componentType":5126,"count":189,"max":[-0.14909160137176514,0.036833733320236206,0.03939032554626465],"min":[-0.2618086636066437,-0.00001203298870677827,-0.042613912373781204],"bufferView":4,"byteOffset":0},{"type":"VEC3","componentType":5126,"count":189,"bufferView":4,"byteOffset":12},{"type":"VEC2","componentType":5126,"count":189,"bufferView":4,"byteOffset":24},{"type":"VEC3","componentType":5126,"count":312,"max":[0.0803217887878418,0.07492871582508087,0.05425997078418732],"min":[-0.03003978729248047,-0.00004904717206954956,-0.057329125702381134],"bufferView":5,"byteOffset":0},{"type":"VEC3","componentType":5126,"count":312,"bufferView":5,"byteOffset":12},{"type":"VEC2","componentType":5126,"count":312,"bufferView":5,"byteOffset":24}],"bufferViews":[{"buffer":0,"byteOffset":0,"byteLength":16800,"target":34963},{"buffer":0,"byteOffset":16800,"byteLength":18208,"byteStride":32,"target":34962},{"buffer":0,"byteOffset":35008,"byteLength":8128,"byteStride":32,"target":34962},{"buffer":0,"byteOffset":43136,"byteLength":15360,"byteStride":32,"target":34962},{"buffer":0,"byteOffset":58496,"byteLength":6048,"byteStride":32,"target":34962},{"buffer":0,"byteOffset":64544,"byteLength":9984,"byteStride":32,"target":34962}],"samplers":[{"magFilter":9729,"minFilter":9987,"wrapS":10497,"wrapT":10497}],"textures":[{"source":1,"sampler":0},{"source":0,"sampler":0},{"source":2,"sampler":0}],"images":[{"name":"namaqualand_stones_01_nor_gl","mimeType":"image/jpeg","uri":"textures/namaqualand_stones_01_nor_gl_1k.jpg"},{"name":"namaqualand_stones_01_diff","mimeType":"image/jpeg","uri":"textures/namaqualand_stones_01_diff_1k.jpg"},{"name":"namaqualand_stones_01_rough","mimeType":"image/jpeg","uri":"textures/namaqualand_stones_01_arm_1k.jpg"}],"buffers":[{"uri":"namaqualand_stones_01_rt.bin","byteLength":74528}],"materials":[{"name":"namaqualand_stones_01","doubleSided":true,"pbrMetallicRoughness":{"metallicFactor":0,"baseColorTexture":{"index":0},"metallicRoughnessTexture":{"index":2}},"normalTexture":{"index":1}}],"meshes":[{"name":"realCap_Model_2.005","primitives":[{"attributes":{"POSITION":5,"NORMAL":6,"TEXCOORD_0":7},"mode":4,"material":0,"indices":0}]},{"name":"realCap_Model_2.003","primitives":[{"attributes":{"POSITION":8,"NORMAL":9,"TEXCOORD_0":10},"mode":4,"material":0,"indices":1}]},{"name":"realCap_Model_2.002","primitives":[{"attributes":{"POSITION":11,"NORMAL":12,"TEXCOORD_0":13},"mode":4,"material":0,"indices":2}]},{"name":"realCap_Model_2.004","primitives":[{"attributes":{"POSITION":14,"NORMAL":15,"TEXCOORD_0":16},"mode":4,"material":0,"indices":3}]},{"name":"realCap_Model_2.001","primitives":[{"attributes":{"POSITION":17,"NORMAL":18,"TEXCOORD_0":19},"mode":4,"material":0,"indices":4}]}],"nodes":[{"name":"namaqualand_stones_01_a","mesh":0},{"name":"namaqualand_stones_01_b","mesh":1},{"name":"namaqualand_stones_01_c","mesh":2},{"name":"namaqualand_stones_01_d","mesh":3},{"name":"namaqualand_stones_01_e","mesh":4}],"scenes":[{"name":"Scene","nodes":[0,1,2,3,4]}],"scene":0}