{"asset":{"generator":"glTF-Transform v4.5.0","version":"2.0"},"accessors":[{"type":"SCALAR","componentType":5123,"count":1980,"bufferView":0,"byteOffset":0},{"type":"SCALAR","componentType":5123,"count":1974,"bufferView":0,"byteOffset":3960},{"type":"SCALAR","componentType":5123,"count":900,"bufferView":0,"byteOffset":7908},{"type":"SCALAR","componentType":5123,"count":1902,"bufferView":0,"byteOffset":9708},{"type":"SCALAR","componentType":5123,"count":2976,"bufferView":0,"byteOffset":13512},{"type":"SCALAR","componentType":5123,"count":1614,"bufferView":0,"byteOffset":19464},{"type":"VEC3","componentType":5126,"count":489,"max":[1.121970295906067,0.8161294460296631,1.6677640676498413],"min":[-1.1140209436416626,-0.6418896317481995,-1.695655345916748],"bufferView":1,"byteOffset":0},{"type":"VEC3","componentType":5126,"count":489,"bufferView":1,"byteOffset":12},{"type":"VEC2","componentType":5126,"count":489,"bufferView":1,"byteOffset":24},{"type":"VEC3","componentType":5126,"count":549,"max":[1.3761359453201294,0.7898740172386169,1.6093558073043823],"min":[-1.2656888961791992,-0.4577133357524872,-1.6285440921783447],"bufferView":2,"byteOffset":0},{"type":"VEC3","componentType":5126,"count":549,"bufferView":2,"byteOffset":12},{"type":"VEC2","componentType":5126,"count":549,"bufferView":2,"byteOffset":24},{"type":"VEC3","componentType":5126,"count":244,"max":[1.0905829668045044,0.6888222694396973,1.0559659004211426],"min":[-1.0145320892333984,-0.4059043228626251,-1.0166581869125366],"bufferView":3,"byteOffset":0},{"type":"VEC3","componentType":5126,"count":244,"bufferView":3,"byteOffset":12},{"type":"VEC2","componentType":5126,"count":244,"bufferView":3,"byteOffset":24},{"type":"VEC3","componentType":5126,"count":429,"max":[1.1721857786178589,1.1027759313583374,1.0748220682144165],"min":[-0.9502788186073303,-0.6557974815368652,-0.8842202425003052],"bufferView":4,"byteOffset":0},{"type":"VEC3","componentType":5126,"count":429,"bufferView":4,"byteOffset":12},{"type":"VEC2","componentType":5126,"count":429,"bufferView":4,"byteOffset":24},{"type":"VEC3","componentType":5126,"count":579,"max":[0.9560464024543762,0.6305827498435974,1.6469948291778564],"min":[-0.8577376008033752,-0.5685954689979553,-1.3499506711959839],"bufferView":5,"byteOffset":0},{"type":"VEC3","componentType":5126,"count":579,"bufferView":5,"byteOffset":12},{"type":"VEC2","componentType":5126,"count":579,"bufferView":5,"byteOffset":24},{"type":"VEC3","componentType":5126,"count":358,"max":[0.9252050518989563,0.727262556552887,1.2651625871658325],"min":[-1.2007771730422974,-0.5204635262489319,-1.4754981994628906],"bufferView":6,"byteOffset":0},{"type":"VEC3","componentType":5126,"count":358,"bufferView":6,"byteOffset":12},{"type":"VEC2","componentType":5126,"count":358,"bufferView":6,"byteOffset":24}],"bufferViews":[{"buffer":0,"byteOffset":0,"byteLength":22692,"target":34963},{"buffer":0,"byteOffset":22692,"byteLength":15648,"byteStride":32,"target":34962},{"buffer":0,"byteOffset":38340,"byteLength":17568,"byteStride":32,"target":34962},{"buffer":0,"byteOffset":55908,"byteLength":7808,"byteStride":32,"target":34962},{"buffer":0,"byteOffset":63716,"byteLength":13728,"byteStride":32,"target":34962},{"buffer":0,"byteOffset":77444,"byteLength":18528,"byteStride":32,"target":34962},{"buffer":0,"byteOffset":95972,"byteLength":11456,"byteStride":32,"target":34962}],"samplers":[{"magFilter":9729,"minFilter":9987,"wrapS":10497,"wrapT":10497}],"textures":[{"source":1,"sampler":0},{"source":0,"sampler":0},{"source":2,"sampler":0}],"images":[{"name":"rock_moss_set_01_nor_gl","mimeType":"image/jpeg","uri":"textures/rock_moss_set_01_nor_gl_1k.jpg"},{"name":"rock_moss_set_01_diff","mimeType":"image/jpeg","uri":"textures/rock_moss_set_01_diff_1k.jpg"},{"name":"rock_moss_set_01_rough","mimeType":"image/jpeg","uri":"textures/rock_moss_set_01_rough_1k.jpg"}],"buffers":[{"uri":"rock_moss_set_01_rt.bin","byteLength":107428}],"materials":[{"name":"rock_moss_set_01","doubleSided":true,"pbrMetallicRoughness":{"metallicFactor":0,"baseColorTexture":{"index":0},"metallicRoughnessTexture":{"index":2}},"normalTexture":{"index":1}}],"meshes":[{"name":"modelShape.005","primitives":[{"attributes":{"POSITION":6,"NORMAL":7,"TEXCOORD_0":8},"mode":4,"material":0,"indices":0}]},{"name":"modelShape.002","primitives":[{"attributes":{"POSITION":9,"NORMAL":10,"TEXCOORD_0":11},"mode":4,"material":0,"indices":1}]},{"name":"modelShape","primitives":[{"attributes":{"POSITION":12,"NORMAL":13,"TEXCOORD_0":14},"mode":4,"material":0,"indices":2}]},{"name":"medium.001","primitives":[{"attributes":{"POSITION":15,"NORMAL":16,"TEXCOORD_0":17},"mode":4,"material":0,"indices":3}]},{"name":"modelShape.003","primitives":[{"attributes":{"POSITION":18,"NORMAL":19,"TEXCOORD_0":20},"mode":4,"material":0,"indices":4}]},{"name":"mesh1-geometry.003","primitives":[{"attributes":{"POSITION":21,"NORMAL":22,"TEXCOORD_0":23},"mode":4,"material":0,"indices":5}]}],"nodes":[{"name":"rock_moss_set_01_rock01","translation":[-2.799999952316284,0,-2.122781276702881],"mesh":0},{"name":"rock_moss_set_01_rock02","translation":[0,0,-2.122781276702881],"mesh":1},{"name":"rock_moss_set_01_rock03","translation":[3,0,-2.122781276702881],"mesh":2},{"name":"rock_moss_set_01_rock04","translation":[-2.700000047683716,0,1.5772186517715454],"mesh":3},{"name":"rock_moss_set_01_rock05","translation":[0.15000000596046448,0,1.4772186279296875],"mesh":4},{"name":"rock_moss_set_01_rock06","translation":[2.799999952316284,0,1.5772186517715454],"mesh":5}],"scenes":[{"name":"Scene","nodes":[0,1,2,3,4,5]}],"scene":0}