{"asset":{"generator":"glTF-Transform v4.5.0","version":"2.0"},"accessors":[{"type":"SCALAR","componentType":5123,"count":4212,"bufferView":0,"byteOffset":0},{"type":"SCALAR","componentType":5123,"count":3936,"bufferView":0,"byteOffset":8424},{"type":"SCALAR","componentType":5123,"count":4443,"bufferView":0,"byteOffset":16296},{"type":"VEC3","componentType":5126,"count":1313,"max":[0.06191990152001381,0.08884792029857635,0.37208646535873413],"min":[-0.06759502738714218,-0.053956836462020874,-0.4047306180000305],"bufferView":1,"byteOffset":0},{"type":"VEC3","componentType":5126,"count":1313,"bufferView":1,"byteOffset":12},{"type":"VEC2","componentType":5126,"count":1313,"bufferView":1,"byteOffset":24},{"type":"VEC3","componentType":5126,"count":1292,"max":[0.08937402069568634,0.07852333784103394,0.5840448141098022],"min":[-0.0599491149187088,-0.0626467615365982,-0.45445898175239563],"bufferView":2,"byteOffset":0},{"type":"VEC3","componentType":5126,"count":1292,"bufferView":2,"byteOffset":12},{"type":"VEC2","componentType":5126,"count":1292,"bufferView":2,"byteOffset":24},{"type":"VEC3","componentType":5126,"count":1739,"max":[0.18606369197368622,0.20076525211334229,0.6620965003967285],"min":[-0.1355181485414505,-0.13928857445716858,-0.6343755125999451],"bufferView":3,"byteOffset":0},{"type":"VEC3","componentType":5126,"count":1739,"bufferView":3,"byteOffset":12},{"type":"VEC2","componentType":5126,"count":1739,"bufferView":3,"byteOffset":24}],"bufferViews":[{"buffer":0,"byteOffset":0,"byteLength":25184,"target":34963},{"buffer":0,"byteOffset":25184,"byteLength":42016,"byteStride":32,"target":34962},{"buffer":0,"byteOffset":67200,"byteLength":41344,"byteStride":32,"target":34962},{"buffer":0,"byteOffset":108544,"byteLength":55648,"byteStride":32,"target":34962}],"samplers":[{"magFilter":9729,"minFilter":9987,"wrapS":10497,"wrapT":10497}],"textures":[{"source":1,"sampler":0},{"source":0,"sampler":0},{"source":2,"sampler":0}],"images":[{"name":"dry_branches_medium_01_nor_gl","mimeType":"image/jpeg","uri":"textures/dry_branches_medium_01_nor_gl_1k.jpg"},{"name":"dry_branches_medium_01_diff","mimeType":"image/jpeg","uri":"textures/dry_branches_medium_01_diff_1k.jpg"},{"name":"dry_branches_medium_01_rough","mimeType":"image/jpeg","uri":"textures/dry_branches_medium_01_arm_1k.jpg"}],"buffers":[{"uri":"dry_branches_medium_01_rt.bin","byteLength":164192}],"materials":[{"name":"dry_branches_medium_01","doubleSided":true,"pbrMetallicRoughness":{"metallicFactor":0,"baseColorTexture":{"index":0},"metallicRoughnessTexture":{"index":2}},"normalTexture":{"index":1}}],"meshes":[{"name":"branches_b_dynamesh.001","primitives":[{"attributes":{"POSITION":3,"NORMAL":4,"TEXCOORD_0":5},"mode":4,"material":0,"indices":0}]},{"name":"branches_b_dynamesh.002","primitives":[{"attributes":{"POSITION":6,"NORMAL":7,"TEXCOORD_0":8},"mode":4,"material":0,"indices":1}]},{"name":"branches_b_dynamesh.003","primitives":[{"attributes":{"POSITION":9,"NORMAL":10,"TEXCOORD_0":11},"mode":4,"material":0,"indices":2}]}],"nodes":[{"name":"dry_branches_medium_01_c","translation":[0.45012858510017395,0.04933696985244751,-0.05088076367974281],"mesh":0},{"name":"dry_branches_medium_01_b","translation":[0.017346084117889404,0.06085515022277832,-0.06261161714792252],"mesh":1},{"name":"dry_branches_medium_01_a","translation":[-0.410437673330307,0.1236923336982727,-0.05545513331890106],"mesh":2}],"scenes":[{"name":"Scene","nodes":[0,1,2]}],"scene":0}